<svg xmlns="http://www.w3.org/2000/svg" xmlns:xlink="http://www.w3.org/1999/xlink" version="1.1" id="Layer_1" x="0px" y="0px" style="enable-background:new 0 0 792 612;" xml:space="preserve" viewBox="316.99 177.49 172.24 234.84">
<style type="text/css">
	.st0{fill:#FFFFFF;stroke:#52C9EF;stroke-miterlimit:10;}
	.st1{fill:#E58888;stroke:#E58888;stroke-width:2;stroke-miterlimit:10;}
	.st2{fill:#FFFFFF;stroke:#E58888;stroke-width:2;stroke-miterlimit:10;}
	.st3{fill:#FFFFFF;stroke:#52C9EF;stroke-width:4;stroke-linecap:round;stroke-miterlimit:10;}
	.st4{fill:#FFFFFF;stroke:#52C9EF;stroke-width:4;stroke-miterlimit:10;}
	.st5{fill:#FFFFFF;stroke:#52C9EF;stroke-width:2;stroke-miterlimit:10;}
	.st6{fill:#FFFFFF;stroke:#FFFFFF;stroke-width:4;stroke-miterlimit:10;}
	.st7{fill:#F18578;stroke:#F18578;stroke-miterlimit:10;}
	.st8{fill:none;stroke:#52C9EF;stroke-width:4;stroke-linecap:round;stroke-miterlimit:10;}
	.st9{fill:none;stroke:#52C9EF;stroke-width:4;stroke-miterlimit:10;}
	.st10{fill:#52C9EF;stroke:#52C9EF;stroke-width:2;stroke-miterlimit:10;}
	.st11{fill:#52C9EF;}
</style>
<g>
	<circle class="st0" cx="383.09" cy="221.96" r="14.44"/>
	<circle class="st1" cx="483.29" cy="243.73" r="2.69"/>
	<circle class="st2" cx="483.5" cy="242.69" r="2.69"/>
	<g>
		<path class="st3" d="M366.25,222.49c0,0-4.65,11.6-3.33,18.02c0,0-5.08,11.5-9.41,17.71c-4.33,6.21-1.32,9.97-1.32,9.97"/>
		<path class="st4" d="M411.23,187.79c-1.18,6.7-4.15,14.13-1.29,17.87"/>
		<g>
			<ellipse class="st5" cx="418.87" cy="232.77" rx="2.17" ry="2.17"/>
			<path class="st3" d="M392.03,202.3c0,0,26.85,2.71,33.65,7.01c6.8,4.3,11.82,16.83,12.89,17.19c1.07,0.36,15.73,5.07,17.41,5.98     c1.68,0.9,14.09,2.97,20.04,5.56c0,0,2.97,0.9,5.3,1.03c2.33,0.13,8.2,2.02,1.67,11.65c-6.53,9.62-11.98,20.42-22.26,22.21     c-10.27,1.79-23.56-2.92-31.01,3.96s-10.74,15.08-23.56,17.34c-12.82,2.26-14.14,3.77-14.99,4.24c-0.85,0.47,2.17-4.05,3.11-4.43     c0.94-0.38-14.8,0.47-20.17,3.2c0,0-1.13,0.63-1.41,1.26s0-7.2,4.52-10.87c4.52-3.68-12.63,1.41-13.29,2.07s0.19-2.73,2.26-3.39     s-8.01,3.49-9.8,5.65c-1.79,2.17,0.19-4.52,2.83-5.94"/>
			<path class="st3" d="M377.18,230.13c0.63-0.31,0.73-2.1,1.15-3.15c0.42-1.05,2.41-0.21,3.25-1.15c0.84-0.94,0-3.46,0-3.46     c-4.72-4.41-2.83-12.38-3.15-11.64c-0.31,0.73,0,3.36,0.86,3.57s5.54,4.41,5.02,3.04s-1.6-5.74-1.5-5.32     c0.1,0.42,4.64,3.23,4.96,1.65c0,0-2.88-9.57-4.39-10.28s5.42,2.13,6.76,9.42"/>
			<path class="st3" d="M369.04,230.73c0,0-3.4-5.53-2.76-10.63c0.64-5.1-2.13-24.02-2.55-25.51c-0.43-1.49,2.98-8.5,2.66-9.99     c-0.32-1.49-0.61-3.04-1.17-4.04c-0.54-0.96,21.72,11.28,28.65,26.8l1.05,2.31c0,0-3.15,5.14-3.88,4.09"/>
			<path class="st3" d="M376.34,224.57c0,0-14.2-29.63-10.42-37.6"/>
			<path class="st4" d="M410.13,187.49c-1.35,2.02-6.12,9.39-6.61,13.75v2.56l12.92,2.37c0,0-1.63-3.8-2.95-10.76     c-0.92-4.84-2.01-7.03-2.6-7.91C410.72,187.22,410.32,187.22,410.13,187.49z"/>
			<path class="st4" d="M365.48,214.89c-1.2,0.97-1.49,1.3-2.59,1.68c0,0-33.37,10.56-36.71,38.62c0,0.01,2.78-0.48,2.36,0.02     c-0.35,0.42,3.97-5.68,8.04-5.25c0.05,0,0.06,0.07,0.03,0.09c-1.09,0.81-10.43,8.02-12.38,17.81c-0.01,0.03,0.02,0.05,0.05,0.03     c0.7-0.58,7.18-5.87,10.26-5.76c0.06,0,0.08,0.07,0.05,0.11c-0.93,1.16-9.4,11.85-12.69,22.54c-2.97,9.66-1.93,17-1.56,18.95     c0.04,0.21,0.31,0.29,0.45,0.13c2-2.22,12.29-13.25,18.81-12.99c0,0-8.92,15.3-7.89,26.78c0.07,0.76,1.03,1.04,1.5,0.44     c2.13-2.69,7.67-7.52,20.32-8.35c17.71-1.16,37.35,0.62,47.12-5.5c9.77-6.11,17.68-16.38,19.4-18.2"/>
			<path class="st4" d="M420.66,226.51c-0.48,0.28-0.91,0.61-1.31,0.97c-2.78,2.49-3.69,6.43-3.74,7.56     c-0.05,1.29,1.24,1.29,4.07,1.03c2.84-0.26,10.34-0.77,3.77-3.54"/>
			<path class="st6" d="M478.33,238.62c-1.73,6.85-0.4,9.39,4.06,9.82c1.9,0.18,1.9,0.18,1.9,0.18"/>
		</g>
	</g>
	<circle class="st7" cx="483.29" cy="244.19" r="4.41"/>
	<g>
		<path class="st8" d="M365.38,222.22c0,0-4.73,11.81-3.39,18.34c0,0-5.17,11.7-9.58,18.02c-4.4,6.32-1.34,10.15-1.34,10.15"/>
		<path class="st9" d="M411.16,186.91c-1.2,6.81-4.22,14.38-1.31,18.18"/>
		<g>
			<ellipse class="st10" cx="418.93" cy="232.68" rx="2.21" ry="2.21"/>
			<path class="st8" d="M391.62,201.67c0,0,27.32,2.76,34.25,7.13s12.03,17.13,13.12,17.49c1.09,0.36,16.01,5.16,17.72,6.09     c1.71,0.92,14.34,3.03,20.39,5.66c0,0,3.03,0.92,5.39,1.05s8.34,2.06,1.7,11.85c-6.65,9.79-12.2,20.78-22.65,22.6     c-10.45,1.82-23.98-2.97-31.56,4.03c-7.58,7-10.93,15.35-23.98,17.65c-13.04,2.3-14.39,3.84-15.25,4.32s2.21-4.12,3.17-4.51     c0.96-0.38-15.06,0.48-20.53,3.26c0,0-1.15,0.65-1.44,1.28c-0.29,0.64,0-7.32,4.6-11.07c4.6-3.74-12.85,1.44-13.52,2.11     c-0.67,0.67,0.19-2.78,2.3-3.45c2.11-0.67-8.15,3.55-9.98,5.75c-1.82,2.21,0.19-4.6,2.88-6.04"/>
			<path class="st8" d="M376.5,229.99c0.64-0.32,0.75-2.13,1.17-3.2c0.43-1.07,2.46-0.21,3.31-1.17c0.85-0.96,0-3.52,0-3.52     c-4.8-4.48-2.88-12.6-3.2-11.85c-0.32,0.75,0,3.42,0.87,3.63c0.87,0.21,5.64,4.48,5.1,3.1c-0.53-1.39-1.63-5.85-1.52-5.42     c0.11,0.43,4.72,3.28,5.05,1.68c0,0-2.93-9.74-4.47-10.47s5.52,2.17,6.88,9.59"/>
			<path class="st8" d="M368.21,230.6c0,0-3.46-5.62-2.81-10.82c0.65-5.19-2.16-24.44-2.6-25.96c-0.43-1.51,3.03-8.65,2.7-10.17     c-0.32-1.51-0.62-3.1-1.19-4.11c-0.55-0.98,22.11,11.48,29.15,27.28l1.07,2.35c0,0-3.2,5.23-3.95,4.16"/>
			<path class="st8" d="M375.65,224.34c0,0-14.45-30.15-10.6-38.27"/>
			<path class="st9" d="M410.04,186.6c-1.38,2.05-6.23,9.56-6.72,13.99v2.6l13.15,2.41c0,0-1.66-3.86-3-10.95     c-0.93-4.93-2.05-7.15-2.64-8.05C410.64,186.32,410.23,186.32,410.04,186.6z"/>
			<path class="st9" d="M365.4,214.86c-1.22,0.99-1.52,1.32-2.63,1.71c0,0-33.96,10.74-37.36,39.3c0,0.01,2.83-0.49,2.4,0.02     c-0.35,0.42,4.04-5.78,8.19-5.35c0.05,0,0.06,0.07,0.03,0.09c-1.11,0.83-10.62,8.16-12.6,18.13c-0.01,0.03,0.02,0.05,0.05,0.03     c0.71-0.59,7.3-5.98,10.44-5.86c0.06,0,0.08,0.07,0.05,0.11c-0.95,1.18-9.57,12.06-12.91,22.94c-3.02,9.83-1.96,17.3-1.59,19.29     c0.04,0.22,0.31,0.29,0.46,0.13c2.04-2.26,12.5-13.48,19.15-13.21c0,0-9.08,15.57-8.03,27.25c0.07,0.77,1.05,1.06,1.53,0.45     c2.17-2.74,7.8-7.66,20.68-8.5c18.02-1.18,38.01,0.63,47.96-5.59c9.94-6.22,17.99-16.67,19.74-18.52"/>
			<path class="st9" d="M420.75,226.3c-0.49,0.29-0.93,0.62-1.33,0.98c-2.83,2.53-3.76,6.54-3.8,7.69     c-0.05,1.31,1.26,1.31,4.15,1.05s10.53-0.78,3.84-3.61"/>
			<path class="st9" d="M479.44,238.64c-1.76,6.97-0.41,9.56,4.13,10c1.93,0.19,1.93,0.19,1.93,0.19"/>
		</g>
	</g>
	<g>
		<path class="st11" d="M424.13,412.33h-2.6c-1.86,0-3.1-0.87-3.72-2.61l-15.51-42.18l-9.8,16.87v24.69c0,2.11-1.24,3.23-3.35,3.23    h-2.36c-2.11,0-3.23-1.12-3.23-3.23v-80.39c0-2.11,1.12-3.23,3.23-3.23h2.36c2.11,0,3.35,1.12,3.35,3.23v41.44l22.83-42.3    c0.74-1.49,2.11-2.36,3.85-2.36h2.98c2.48,0,3.47,1.61,2.23,3.85l-16.62,28.66l18.98,50.62    C427.48,410.71,426.48,412.33,424.13,412.33z"/>
		<path class="st11" d="M436.19,326.28h1.28c1.21,0,1.85,0.64,1.85,1.85v1.99c0,5.05,1.71,6.69,5.76,6.69    c4.05,0,5.76-1.64,5.76-6.69v-11.95c-1.14,1.78-3.41,2.99-7.04,2.99c-5.69,0-9.89-2.92-9.89-9.46v-11.17    c0-6.97,3.34-10.24,10.88-10.24h0.14c7.54,0,10.88,3.27,10.88,10.24v30.44c0,6.97-3.13,10.24-10.67,10.24h-0.14    c-7.54,0-10.67-3.27-10.67-10.24v-3.06C434.34,326.92,434.98,326.28,436.19,326.28z M450.84,310.77v-9.39    c0-5.05-1.92-6.69-5.98-6.69c-4.05,0-5.98,1.64-5.98,6.69v9.39c0,4.2,2.35,5.9,5.98,5.9    C448.21,316.67,450.84,314.97,450.84,310.77z"/>
	</g>
</g>
</svg>